# xmcd CD database file
#
# Track frame offsets:
#	150
#	18845
#	36305
#	56905
#	71715
#	95405
#	120707
#	140555
#	157687
#	180120
#
# Disc length: 2785 seconds
#
# Revision: 0
# Processed by: cddbd v1.4PL0 Copyright (c) Steve Scherf et al.
# Submitted via: NeoAudio 9.9.9
#
DISCID=7e0adf0a
DTITLE=Michael Benedict - Skin to Earth
DYEAR=1995
DGENRE=Jazz
TTITLE0=Ow!
TTITLE1=Easy Big
TTITLE2=South Beach Strut
TTITLE3=Ain't That Peculiar
TTITLE4=The Pump
TTITLE5=Down at Mama Hatties
TTITLE6=Use Me
TTITLE7=Loxahatchee Shakedown
TTITLE8=Native American Blues
TTITLE9=Skin to Earth (Excursion)
EXTD=YEAR: 1995
EXTT0=
EXTT1=
EXTT2=
EXTT3=
EXTT4=
EXTT5=
EXTT6=
EXTT7=
EXTT8=
EXTT9=
PLAYORDER=
